<?xml version="1.0" encoding="utf-8" standalone="no"?>
<!DOCTYPE svg PUBLIC "-//W3C//DTD SVG 1.1//EN"
  "http://www.w3.org/Graphics/SVG/1.1/DTD/svg11.dtd">
<!-- Created with matplotlib (https://matplotlib.org/) -->
<svg height="288pt" version="1.1" viewBox="0 0 432 288" width="432pt" xmlns="http://www.w3.org/2000/svg" xmlns:xlink="http://www.w3.org/1999/xlink">
 <defs>
  <style type="text/css">
*{stroke-linecap:butt;stroke-linejoin:round;}
  </style>
 </defs>
 <g id="figure_1">
  <g id="patch_1">
   <path d="M 0 288 
L 432 288 
L 432 0 
L 0 0 
z
" style="fill:#ffffff;"/>
  </g>
  <g id="axes_1">
   <g id="patch_2">
    <path d="M 47.8 246.2 
L 421.2 246.2 
L 421.2 21.8 
L 47.8 21.8 
z
" style="fill:#ffffff;"/>
   </g>
   <g id="PathCollection_1">
    <defs>
     <path d="M 0 3 
C 0.795609 3 1.55874 2.683901 2.12132 2.12132 
C 2.683901 1.55874 3 0.795609 3 0 
C 3 -0.795609 2.683901 -1.55874 2.12132 -2.12132 
C 1.55874 -2.683901 0.795609 -3 0 -3 
C -0.795609 -3 -1.55874 -2.683901 -2.12132 -2.12132 
C -2.683901 -1.55874 -3 -0.795609 -3 0 
C -3 0.795609 -2.683901 1.55874 -2.12132 2.12132 
C -1.55874 2.683901 -0.795609 3 0 3 
z
" id="mebef2675b1" style="stroke:#ffffff;stroke-width:0.75;"/>
    </defs>
    <g clip-path="url(#pec000e7359)">
     <use style="fill:#1f77b4;stroke:#ffffff;stroke-width:0.75;" x="253.643137" xlink:href="#mebef2675b1" y="230.889795"/>
     <use style="fill:#1f77b4;stroke:#ffffff;stroke-width:0.75;" x="72.855464" xlink:href="#mebef2675b1" y="219.265565"/>
     <use style="fill:#1f77b4;stroke:#ffffff;stroke-width:0.75;" x="64.772727" xlink:href="#mebef2675b1" y="235.465907"/>
     <use style="fill:#1f77b4;stroke:#ffffff;stroke-width:0.75;" x="178.45098" xlink:href="#mebef2675b1" y="234.051943"/>
     <use style="fill:#1f77b4;stroke:#ffffff;stroke-width:0.75;" x="64.772727" xlink:href="#mebef2675b1" y="230.671994"/>
     <use style="fill:#1f77b4;stroke:#ffffff;stroke-width:0.75;" x="152.536664" xlink:href="#mebef2675b1" y="231.928382"/>
     <use style="fill:#1f77b4;stroke:#ffffff;stroke-width:0.75;" x="134.671258" xlink:href="#mebef2675b1" y="182.409409"/>
     <use style="fill:#1f77b4;stroke:#ffffff;stroke-width:0.75;" x="183.143527" xlink:href="#mebef2675b1" y="233.281011"/>
     <use style="fill:#1f77b4;stroke:#ffffff;stroke-width:0.75;" x="371.798559" xlink:href="#mebef2675b1" y="142.106358"/>
     <use style="fill:#1f77b4;stroke:#ffffff;stroke-width:0.75;" x="135.969205" xlink:href="#mebef2675b1" y="229.601744"/>
     <use style="fill:#1f77b4;stroke:#ffffff;stroke-width:0.75;" x="175.420534" xlink:href="#mebef2675b1" y="234.17696"/>
     <use style="fill:#1f77b4;stroke:#ffffff;stroke-width:0.75;" x="163.092951" xlink:href="#mebef2675b1" y="220.785812"/>
     <use style="fill:#1f77b4;stroke:#ffffff;stroke-width:0.75;" x="180.368588" xlink:href="#mebef2675b1" y="233.038507"/>
     <use style="fill:#1f77b4;stroke:#ffffff;stroke-width:0.75;" x="216.514742" xlink:href="#mebef2675b1" y="211.071728"/>
     <use style="fill:#1f77b4;stroke:#ffffff;stroke-width:0.75;" x="84.138932" xlink:href="#mebef2675b1" y="235.885786"/>
     <use style="fill:#1f77b4;stroke:#ffffff;stroke-width:0.75;" x="155.746673" xlink:href="#mebef2675b1" y="227.937469"/>
     <use style="fill:#1f77b4;stroke:#ffffff;stroke-width:0.75;" x="238.323976" xlink:href="#mebef2675b1" y="183.277144"/>
     <use style="fill:#1f77b4;stroke:#ffffff;stroke-width:0.75;" x="64.772727" xlink:href="#mebef2675b1" y="218.110788"/>
     <use style="fill:#1f77b4;stroke:#ffffff;stroke-width:0.75;" x="354.794105" xlink:href="#mebef2675b1" y="146.529686"/>
     <use style="fill:#1f77b4;stroke:#ffffff;stroke-width:0.75;" x="187.823234" xlink:href="#mebef2675b1" y="212.827094"/>
     <use style="fill:#1f77b4;stroke:#ffffff;stroke-width:0.75;" x="192.434707" xlink:href="#mebef2675b1" y="222.995752"/>
     <use style="fill:#1f77b4;stroke:#ffffff;stroke-width:0.75;" x="64.772727" xlink:href="#mebef2675b1" y="235.530999"/>
     <use style="fill:#1f77b4;stroke:#ffffff;stroke-width:0.75;" x="374.007699" xlink:href="#mebef2675b1" y="32"/>
     <use style="fill:#1f77b4;stroke:#ffffff;stroke-width:0.75;" x="78.382659" xlink:href="#mebef2675b1" y="228.739622"/>
     <use style="fill:#1f77b4;stroke:#ffffff;stroke-width:0.75;" x="113.507296" xlink:href="#mebef2675b1" y="219.496105"/>
     <use style="fill:#1f77b4;stroke:#ffffff;stroke-width:0.75;" x="190.550048" xlink:href="#mebef2675b1" y="226.947921"/>
     <use style="fill:#1f77b4;stroke:#ffffff;stroke-width:0.75;" x="112.436564" xlink:href="#mebef2675b1" y="235.139918"/>
     <use style="fill:#1f77b4;stroke:#ffffff;stroke-width:0.75;" x="168.927098" xlink:href="#mebef2675b1" y="234.752678"/>
     <use style="fill:#1f77b4;stroke:#ffffff;stroke-width:0.75;" x="195.643687" xlink:href="#mebef2675b1" y="224.455041"/>
     <use style="fill:#1f77b4;stroke:#ffffff;stroke-width:0.75;" x="180.085776" xlink:href="#mebef2675b1" y="234.205661"/>
     <use style="fill:#1f77b4;stroke:#ffffff;stroke-width:0.75;" x="245.9581" xlink:href="#mebef2675b1" y="225.225897"/>
     <use style="fill:#1f77b4;stroke:#ffffff;stroke-width:0.75;" x="76.422293" xlink:href="#mebef2675b1" y="235.91109"/>
     <use style="fill:#1f77b4;stroke:#ffffff;stroke-width:0.75;" x="64.772727" xlink:href="#mebef2675b1" y="235.93889"/>
     <use style="fill:#1f77b4;stroke:#ffffff;stroke-width:0.75;" x="229.902701" xlink:href="#mebef2675b1" y="172.474663"/>
     <use style="fill:#1f77b4;stroke:#ffffff;stroke-width:0.75;" x="242.09602" xlink:href="#mebef2675b1" y="146.425572"/>
     <use style="fill:#1f77b4;stroke:#ffffff;stroke-width:0.75;" x="182.032252" xlink:href="#mebef2675b1" y="184.863184"/>
     <use style="fill:#1f77b4;stroke:#ffffff;stroke-width:0.75;" x="283.150071" xlink:href="#mebef2675b1" y="189.000388"/>
     <use style="fill:#1f77b4;stroke:#ffffff;stroke-width:0.75;" x="64.772727" xlink:href="#mebef2675b1" y="233.729617"/>
     <use style="fill:#1f77b4;stroke:#ffffff;stroke-width:0.75;" x="201.151601" xlink:href="#mebef2675b1" y="209.268031"/>
     <use style="fill:#1f77b4;stroke:#ffffff;stroke-width:0.75;" x="149.147247" xlink:href="#mebef2675b1" y="135.741156"/>
     <use style="fill:#1f77b4;stroke:#ffffff;stroke-width:0.75;" x="85.373512" xlink:href="#mebef2675b1" y="231.380144"/>
     <use style="fill:#1f77b4;stroke:#ffffff;stroke-width:0.75;" x="84.040716" xlink:href="#mebef2675b1" y="231.954349"/>
     <use style="fill:#1f77b4;stroke:#ffffff;stroke-width:0.75;" x="64.772727" xlink:href="#mebef2675b1" y="223.062492"/>
     <use style="fill:#1f77b4;stroke:#ffffff;stroke-width:0.75;" x="64.772727" xlink:href="#mebef2675b1" y="230.067905"/>
     <use style="fill:#1f77b4;stroke:#ffffff;stroke-width:0.75;" x="133.738992" xlink:href="#mebef2675b1" y="235.475471"/>
     <use style="fill:#1f77b4;stroke:#ffffff;stroke-width:0.75;" x="68.158986" xlink:href="#mebef2675b1" y="232.479385"/>
     <use style="fill:#1f77b4;stroke:#ffffff;stroke-width:0.75;" x="136.855346" xlink:href="#mebef2675b1" y="220.077614"/>
     <use style="fill:#1f77b4;stroke:#ffffff;stroke-width:0.75;" x="87.891759" xlink:href="#mebef2675b1" y="228.229037"/>
     <use style="fill:#1f77b4;stroke:#ffffff;stroke-width:0.75;" x="248.531285" xlink:href="#mebef2675b1" y="155.863724"/>
     <use style="fill:#1f77b4;stroke:#ffffff;stroke-width:0.75;" x="105.434032" xlink:href="#mebef2675b1" y="225.183956"/>
     <use style="fill:#1f77b4;stroke:#ffffff;stroke-width:0.75;" x="182.558446" xlink:href="#mebef2675b1" y="193.826787"/>
     <use style="fill:#1f77b4;stroke:#ffffff;stroke-width:0.75;" x="64.772727" xlink:href="#mebef2675b1" y="235.321232"/>
     <use style="fill:#1f77b4;stroke:#ffffff;stroke-width:0.75;" x="276.312654" xlink:href="#mebef2675b1" y="221.500055"/>
     <use style="fill:#1f77b4;stroke:#ffffff;stroke-width:0.75;" x="64.772727" xlink:href="#mebef2675b1" y="234.669416"/>
     <use style="fill:#1f77b4;stroke:#ffffff;stroke-width:0.75;" x="213.557339" xlink:href="#mebef2675b1" y="150.257133"/>
     <use style="fill:#1f77b4;stroke:#ffffff;stroke-width:0.75;" x="64.772727" xlink:href="#mebef2675b1" y="216.929872"/>
     <use style="fill:#1f77b4;stroke:#ffffff;stroke-width:0.75;" x="64.772727" xlink:href="#mebef2675b1" y="235.948066"/>
     <use style="fill:#1f77b4;stroke:#ffffff;stroke-width:0.75;" x="65.11953" xlink:href="#mebef2675b1" y="235.732021"/>
     <use style="fill:#1f77b4;stroke:#ffffff;stroke-width:0.75;" x="208.828509" xlink:href="#mebef2675b1" y="213.833318"/>
     <use style="fill:#1f77b4;stroke:#ffffff;stroke-width:0.75;" x="102.223609" xlink:href="#mebef2675b1" y="235.165069"/>
     <use style="fill:#1f77b4;stroke:#ffffff;stroke-width:0.75;" x="117.511837" xlink:href="#mebef2675b1" y="233.727231"/>
     <use style="fill:#1f77b4;stroke:#ffffff;stroke-width:0.75;" x="175.09594" xlink:href="#mebef2675b1" y="163.493236"/>
     <use style="fill:#1f77b4;stroke:#ffffff;stroke-width:0.75;" x="321.213771" xlink:href="#mebef2675b1" y="173.056114"/>
     <use style="fill:#1f77b4;stroke:#ffffff;stroke-width:0.75;" x="185.687344" xlink:href="#mebef2675b1" y="226.283167"/>
     <use style="fill:#1f77b4;stroke:#ffffff;stroke-width:0.75;" x="205.854142" xlink:href="#mebef2675b1" y="231.650605"/>
     <use style="fill:#1f77b4;stroke:#ffffff;stroke-width:0.75;" x="114.599897" xlink:href="#mebef2675b1" y="234.77079"/>
     <use style="fill:#1f77b4;stroke:#ffffff;stroke-width:0.75;" x="64.935997" xlink:href="#mebef2675b1" y="234.247806"/>
     <use style="fill:#1f77b4;stroke:#ffffff;stroke-width:0.75;" x="100.071891" xlink:href="#mebef2675b1" y="222.259625"/>
     <use style="fill:#1f77b4;stroke:#ffffff;stroke-width:0.75;" x="310.761414" xlink:href="#mebef2675b1" y="216.128682"/>
     <use style="fill:#1f77b4;stroke:#ffffff;stroke-width:0.75;" x="87.662337" xlink:href="#mebef2675b1" y="234.801321"/>
     <use style="fill:#1f77b4;stroke:#ffffff;stroke-width:0.75;" x="73.13136" xlink:href="#mebef2675b1" y="232.976983"/>
     <use style="fill:#1f77b4;stroke:#ffffff;stroke-width:0.75;" x="222.485778" xlink:href="#mebef2675b1" y="234.040152"/>
     <use style="fill:#1f77b4;stroke:#ffffff;stroke-width:0.75;" x="64.772727" xlink:href="#mebef2675b1" y="234.429398"/>
     <use style="fill:#1f77b4;stroke:#ffffff;stroke-width:0.75;" x="195.411669" xlink:href="#mebef2675b1" y="203.762643"/>
     <use style="fill:#1f77b4;stroke:#ffffff;stroke-width:0.75;" x="180.670051" xlink:href="#mebef2675b1" y="226.716603"/>
     <use style="fill:#1f77b4;stroke:#ffffff;stroke-width:0.75;" x="177.247742" xlink:href="#mebef2675b1" y="193.061052"/>
     <use style="fill:#1f77b4;stroke:#ffffff;stroke-width:0.75;" x="90.012599" xlink:href="#mebef2675b1" y="232.690379"/>
     <use style="fill:#1f77b4;stroke:#ffffff;stroke-width:0.75;" x="162.949264" xlink:href="#mebef2675b1" y="234.04547"/>
     <use style="fill:#1f77b4;stroke:#ffffff;stroke-width:0.75;" x="223.910782" xlink:href="#mebef2675b1" y="210.697489"/>
     <use style="fill:#1f77b4;stroke:#ffffff;stroke-width:0.75;" x="116.386417" xlink:href="#mebef2675b1" y="200.159917"/>
     <use style="fill:#1f77b4;stroke:#ffffff;stroke-width:0.75;" x="228.916736" xlink:href="#mebef2675b1" y="117.153163"/>
     <use style="fill:#1f77b4;stroke:#ffffff;stroke-width:0.75;" x="159.68762" xlink:href="#mebef2675b1" y="200.451246"/>
     <use style="fill:#1f77b4;stroke:#ffffff;stroke-width:0.75;" x="272.754521" xlink:href="#mebef2675b1" y="180.922882"/>
     <use style="fill:#1f77b4;stroke:#ffffff;stroke-width:0.75;" x="158.208569" xlink:href="#mebef2675b1" y="233.690118"/>
     <use style="fill:#1f77b4;stroke:#ffffff;stroke-width:0.75;" x="106.225904" xlink:href="#mebef2675b1" y="232.824456"/>
     <use style="fill:#1f77b4;stroke:#ffffff;stroke-width:0.75;" x="165.830738" xlink:href="#mebef2675b1" y="211.476813"/>
     <use style="fill:#1f77b4;stroke:#ffffff;stroke-width:0.75;" x="162.703525" xlink:href="#mebef2675b1" y="233.44028"/>
     <use style="fill:#1f77b4;stroke:#ffffff;stroke-width:0.75;" x="64.772727" xlink:href="#mebef2675b1" y="232.253366"/>
     <use style="fill:#1f77b4;stroke:#ffffff;stroke-width:0.75;" x="136.142708" xlink:href="#mebef2675b1" y="184.874143"/>
     <use style="fill:#1f77b4;stroke:#ffffff;stroke-width:0.75;" x="126.171755" xlink:href="#mebef2675b1" y="235.343174"/>
     <use style="fill:#1f77b4;stroke:#ffffff;stroke-width:0.75;" x="164.214532" xlink:href="#mebef2675b1" y="230.437879"/>
     <use style="fill:#1f77b4;stroke:#ffffff;stroke-width:0.75;" x="116.609084" xlink:href="#mebef2675b1" y="225.096115"/>
     <use style="fill:#1f77b4;stroke:#ffffff;stroke-width:0.75;" x="64.772727" xlink:href="#mebef2675b1" y="235.830305"/>
     <use style="fill:#1f77b4;stroke:#ffffff;stroke-width:0.75;" x="200.11063" xlink:href="#mebef2675b1" y="231.934558"/>
     <use style="fill:#1f77b4;stroke:#ffffff;stroke-width:0.75;" x="199.783699" xlink:href="#mebef2675b1" y="234.41652"/>
     <use style="fill:#1f77b4;stroke:#ffffff;stroke-width:0.75;" x="259.723562" xlink:href="#mebef2675b1" y="162.762815"/>
     <use style="fill:#1f77b4;stroke:#ffffff;stroke-width:0.75;" x="207.117942" xlink:href="#mebef2675b1" y="223.707246"/>
     <use style="fill:#1f77b4;stroke:#ffffff;stroke-width:0.75;" x="234.033956" xlink:href="#mebef2675b1" y="203.053134"/>
     <use style="fill:#1f77b4;stroke:#ffffff;stroke-width:0.75;" x="126.512704" xlink:href="#mebef2675b1" y="235.683022"/>
     <use style="fill:#1f77b4;stroke:#ffffff;stroke-width:0.75;" x="239.93617" xlink:href="#mebef2675b1" y="227.9062"/>
     <use style="fill:#1f77b4;stroke:#ffffff;stroke-width:0.75;" x="128.079368" xlink:href="#mebef2675b1" y="233.834449"/>
     <use style="fill:#1f77b4;stroke:#ffffff;stroke-width:0.75;" x="200.904545" xlink:href="#mebef2675b1" y="220.504859"/>
     <use style="fill:#1f77b4;stroke:#ffffff;stroke-width:0.75;" x="87.819016" xlink:href="#mebef2675b1" y="235.636568"/>
     <use style="fill:#1f77b4;stroke:#ffffff;stroke-width:0.75;" x="182.065509" xlink:href="#mebef2675b1" y="133.546759"/>
     <use style="fill:#1f77b4;stroke:#ffffff;stroke-width:0.75;" x="170.525854" xlink:href="#mebef2675b1" y="235.15469"/>
     <use style="fill:#1f77b4;stroke:#ffffff;stroke-width:0.75;" x="129.265364" xlink:href="#mebef2675b1" y="185.56428"/>
     <use style="fill:#1f77b4;stroke:#ffffff;stroke-width:0.75;" x="64.772727" xlink:href="#mebef2675b1" y="235.893038"/>
     <use style="fill:#1f77b4;stroke:#ffffff;stroke-width:0.75;" x="160.087025" xlink:href="#mebef2675b1" y="118.545673"/>
     <use style="fill:#1f77b4;stroke:#ffffff;stroke-width:0.75;" x="337.536027" xlink:href="#mebef2675b1" y="133.825247"/>
     <use style="fill:#1f77b4;stroke:#ffffff;stroke-width:0.75;" x="211.553744" xlink:href="#mebef2675b1" y="206.119678"/>
     <use style="fill:#1f77b4;stroke:#ffffff;stroke-width:0.75;" x="171.594444" xlink:href="#mebef2675b1" y="230.584571"/>
     <use style="fill:#1f77b4;stroke:#ffffff;stroke-width:0.75;" x="361.371997" xlink:href="#mebef2675b1" y="199.646271"/>
     <use style="fill:#1f77b4;stroke:#ffffff;stroke-width:0.75;" x="170.396144" xlink:href="#mebef2675b1" y="205.353806"/>
     <use style="fill:#1f77b4;stroke:#ffffff;stroke-width:0.75;" x="193.609996" xlink:href="#mebef2675b1" y="231.805425"/>
     <use style="fill:#1f77b4;stroke:#ffffff;stroke-width:0.75;" x="64.772727" xlink:href="#mebef2675b1" y="222.346884"/>
     <use style="fill:#1f77b4;stroke:#ffffff;stroke-width:0.75;" x="124.718121" xlink:href="#mebef2675b1" y="233.751038"/>
     <use style="fill:#1f77b4;stroke:#ffffff;stroke-width:0.75;" x="206.96057" xlink:href="#mebef2675b1" y="227.046257"/>
     <use style="fill:#1f77b4;stroke:#ffffff;stroke-width:0.75;" x="110.476705" xlink:href="#mebef2675b1" y="218.967131"/>
     <use style="fill:#1f77b4;stroke:#ffffff;stroke-width:0.75;" x="290.014079" xlink:href="#mebef2675b1" y="49.275222"/>
     <use style="fill:#1f77b4;stroke:#ffffff;stroke-width:0.75;" x="68.943011" xlink:href="#mebef2675b1" y="235.792264"/>
     <use style="fill:#1f77b4;stroke:#ffffff;stroke-width:0.75;" x="224.134378" xlink:href="#mebef2675b1" y="191.160271"/>
     <use style="fill:#1f77b4;stroke:#ffffff;stroke-width:0.75;" x="70.048933" xlink:href="#mebef2675b1" y="228.683426"/>
     <use style="fill:#1f77b4;stroke:#ffffff;stroke-width:0.75;" x="151.669485" xlink:href="#mebef2675b1" y="233.648586"/>
     <use style="fill:#1f77b4;stroke:#ffffff;stroke-width:0.75;" x="201.520891" xlink:href="#mebef2675b1" y="231.890468"/>
     <use style="fill:#1f77b4;stroke:#ffffff;stroke-width:0.75;" x="64.772727" xlink:href="#mebef2675b1" y="200.430472"/>
     <use style="fill:#1f77b4;stroke:#ffffff;stroke-width:0.75;" x="124.812648" xlink:href="#mebef2675b1" y="229.072018"/>
     <use style="fill:#1f77b4;stroke:#ffffff;stroke-width:0.75;" x="155.016764" xlink:href="#mebef2675b1" y="216.997386"/>
     <use style="fill:#1f77b4;stroke:#ffffff;stroke-width:0.75;" x="191.725728" xlink:href="#mebef2675b1" y="176.277731"/>
     <use style="fill:#1f77b4;stroke:#ffffff;stroke-width:0.75;" x="197.856874" xlink:href="#mebef2675b1" y="111.590325"/>
     <use style="fill:#1f77b4;stroke:#ffffff;stroke-width:0.75;" x="150.65367" xlink:href="#mebef2675b1" y="214.930417"/>
     <use style="fill:#1f77b4;stroke:#ffffff;stroke-width:0.75;" x="161.021109" xlink:href="#mebef2675b1" y="229.793097"/>
     <use style="fill:#1f77b4;stroke:#ffffff;stroke-width:0.75;" x="135.513571" xlink:href="#mebef2675b1" y="232.122455"/>
     <use style="fill:#1f77b4;stroke:#ffffff;stroke-width:0.75;" x="64.772727" xlink:href="#mebef2675b1" y="235.483532"/>
     <use style="fill:#1f77b4;stroke:#ffffff;stroke-width:0.75;" x="163.184688" xlink:href="#mebef2675b1" y="224.941733"/>
     <use style="fill:#1f77b4;stroke:#ffffff;stroke-width:0.75;" x="130.896398" xlink:href="#mebef2675b1" y="230.6709"/>
     <use style="fill:#1f77b4;stroke:#ffffff;stroke-width:0.75;" x="278.413948" xlink:href="#mebef2675b1" y="212.546651"/>
     <use style="fill:#1f77b4;stroke:#ffffff;stroke-width:0.75;" x="124.263462" xlink:href="#mebef2675b1" y="235.35719"/>
     <use style="fill:#1f77b4;stroke:#ffffff;stroke-width:0.75;" x="175.089074" xlink:href="#mebef2675b1" y="177.184859"/>
     <use style="fill:#1f77b4;stroke:#ffffff;stroke-width:0.75;" x="206.407972" xlink:href="#mebef2675b1" y="214.847323"/>
     <use style="fill:#1f77b4;stroke:#ffffff;stroke-width:0.75;" x="64.772727" xlink:href="#mebef2675b1" y="199.106355"/>
     <use style="fill:#1f77b4;stroke:#ffffff;stroke-width:0.75;" x="81.334866" xlink:href="#mebef2675b1" y="230.846399"/>
     <use style="fill:#1f77b4;stroke:#ffffff;stroke-width:0.75;" x="259.456554" xlink:href="#mebef2675b1" y="208.586518"/>
     <use style="fill:#1f77b4;stroke:#ffffff;stroke-width:0.75;" x="156.690632" xlink:href="#mebef2675b1" y="235.043732"/>
     <use style="fill:#1f77b4;stroke:#ffffff;stroke-width:0.75;" x="171.422147" xlink:href="#mebef2675b1" y="205.711896"/>
     <use style="fill:#1f77b4;stroke:#ffffff;stroke-width:0.75;" x="118.261909" xlink:href="#mebef2675b1" y="227.882732"/>
     <use style="fill:#1f77b4;stroke:#ffffff;stroke-width:0.75;" x="158.420135" xlink:href="#mebef2675b1" y="231.151321"/>
     <use style="fill:#1f77b4;stroke:#ffffff;stroke-width:0.75;" x="64.772727" xlink:href="#mebef2675b1" y="235.072096"/>
     <use style="fill:#1f77b4;stroke:#ffffff;stroke-width:0.75;" x="64.772727" xlink:href="#mebef2675b1" y="231.449359"/>
     <use style="fill:#1f77b4;stroke:#ffffff;stroke-width:0.75;" x="218.453718" xlink:href="#mebef2675b1" y="205.506207"/>
     <use style="fill:#1f77b4;stroke:#ffffff;stroke-width:0.75;" x="64.772727" xlink:href="#mebef2675b1" y="235.612141"/>
     <use style="fill:#1f77b4;stroke:#ffffff;stroke-width:0.75;" x="149.261835" xlink:href="#mebef2675b1" y="234.41697"/>
     <use style="fill:#1f77b4;stroke:#ffffff;stroke-width:0.75;" x="213.989244" xlink:href="#mebef2675b1" y="227.56666"/>
     <use style="fill:#1f77b4;stroke:#ffffff;stroke-width:0.75;" x="148.067821" xlink:href="#mebef2675b1" y="235.309614"/>
     <use style="fill:#1f77b4;stroke:#ffffff;stroke-width:0.75;" x="131.670969" xlink:href="#mebef2675b1" y="234.047289"/>
     <use style="fill:#1f77b4;stroke:#ffffff;stroke-width:0.75;" x="82.11592" xlink:href="#mebef2675b1" y="235.687413"/>
     <use style="fill:#1f77b4;stroke:#ffffff;stroke-width:0.75;" x="209.079373" xlink:href="#mebef2675b1" y="199.913783"/>
    </g>
   </g>
   <g id="matplotlib.axis_1">
    <g id="xtick_1">
     <g id="line2d_1">
      <defs>
       <path d="M 0 0 
L 0 3.5 
" id="m3017a71ed4" style="stroke:#000000;stroke-width:0.8;"/>
      </defs>
      <g>
       <use style="stroke:#000000;stroke-width:0.8;" x="64.772727" xlink:href="#m3017a71ed4" y="246.2"/>
      </g>
     </g>
     <g id="text_1">
      <!-- $0M -->
      <defs>
       <path d="M 33.796875 -14.703125 
L 28.90625 -14.703125 
L 28.859375 0 
Q 23.734375 0.09375 18.609375 1.1875 
Q 13.484375 2.296875 8.296875 4.5 
L 8.296875 13.28125 
Q 13.28125 10.15625 18.375 8.5625 
Q 23.484375 6.984375 28.90625 6.9375 
L 28.90625 29.203125 
Q 18.109375 30.953125 13.203125 35.15625 
Q 8.296875 39.359375 8.296875 46.6875 
Q 8.296875 54.640625 13.625 59.21875 
Q 18.953125 63.8125 28.90625 64.5 
L 28.90625 75.984375 
L 33.796875 75.984375 
L 33.796875 64.65625 
Q 38.328125 64.453125 42.578125 63.6875 
Q 46.828125 62.9375 50.875 61.625 
L 50.875 53.078125 
Q 46.828125 55.125 42.546875 56.25 
Q 38.28125 57.375 33.796875 57.5625 
L 33.796875 36.71875 
Q 44.875 35.015625 50.09375 30.609375 
Q 55.328125 26.21875 55.328125 18.609375 
Q 55.328125 10.359375 49.78125 5.59375 
Q 44.234375 0.828125 33.796875 0.09375 
z
M 28.90625 37.59375 
L 28.90625 57.625 
Q 23.25 56.984375 20.265625 54.390625 
Q 17.28125 51.8125 17.28125 47.515625 
Q 17.28125 43.3125 20.03125 40.96875 
Q 22.796875 38.625 28.90625 37.59375 
z
M 33.796875 28.21875 
L 33.796875 7.078125 
Q 39.984375 7.90625 43.140625 10.59375 
Q 46.296875 13.28125 46.296875 17.671875 
Q 46.296875 21.96875 43.28125 24.5 
Q 40.28125 27.046875 33.796875 28.21875 
z
" id="DejaVuSans-36"/>
       <path d="M 31.78125 66.40625 
Q 24.171875 66.40625 20.328125 58.90625 
Q 16.5 51.421875 16.5 36.375 
Q 16.5 21.390625 20.328125 13.890625 
Q 24.171875 6.390625 31.78125 6.390625 
Q 39.453125 6.390625 43.28125 13.890625 
Q 47.125 21.390625 47.125 36.375 
Q 47.125 51.421875 43.28125 58.90625 
Q 39.453125 66.40625 31.78125 66.40625 
z
M 31.78125 74.21875 
Q 44.046875 74.21875 50.515625 64.515625 
Q 56.984375 54.828125 56.984375 36.375 
Q 56.984375 17.96875 50.515625 8.265625 
Q 44.046875 -1.421875 31.78125 -1.421875 
Q 19.53125 -1.421875 13.0625 8.265625 
Q 6.59375 17.96875 6.59375 36.375 
Q 6.59375 54.828125 13.0625 64.515625 
Q 19.53125 74.21875 31.78125 74.21875 
z
" id="DejaVuSans-48"/>
       <path d="M 9.8125 72.90625 
L 24.515625 72.90625 
L 43.109375 23.296875 
L 61.8125 72.90625 
L 76.515625 72.90625 
L 76.515625 0 
L 66.890625 0 
L 66.890625 64.015625 
L 48.09375 14.015625 
L 38.1875 14.015625 
L 19.390625 64.015625 
L 19.390625 0 
L 9.8125 0 
z
" id="DejaVuSans-77"/>
      </defs>
      <g transform="translate(54.096165 260.798437)scale(0.1 -0.1)">
       <use xlink:href="#DejaVuSans-36"/>
       <use x="63.623047" xlink:href="#DejaVuSans-48"/>
       <use x="127.246094" xlink:href="#DejaVuSans-77"/>
      </g>
     </g>
    </g>
    <g id="xtick_2">
     <g id="line2d_2">
      <g>
       <use style="stroke:#000000;stroke-width:0.8;" x="113.266234" xlink:href="#m3017a71ed4" y="246.2"/>
      </g>
     </g>
     <g id="text_2">
      <!-- $25M -->
      <defs>
       <path d="M 19.1875 8.296875 
L 53.609375 8.296875 
L 53.609375 0 
L 7.328125 0 
L 7.328125 8.296875 
Q 12.9375 14.109375 22.625 23.890625 
Q 32.328125 33.6875 34.8125 36.53125 
Q 39.546875 41.84375 41.421875 45.53125 
Q 43.3125 49.21875 43.3125 52.78125 
Q 43.3125 58.59375 39.234375 62.25 
Q 35.15625 65.921875 28.609375 65.921875 
Q 23.96875 65.921875 18.8125 64.3125 
Q 13.671875 62.703125 7.8125 59.421875 
L 7.8125 69.390625 
Q 13.765625 71.78125 18.9375 73 
Q 24.125 74.21875 28.421875 74.21875 
Q 39.75 74.21875 46.484375 68.546875 
Q 53.21875 62.890625 53.21875 53.421875 
Q 53.21875 48.921875 51.53125 44.890625 
Q 49.859375 40.875 45.40625 35.40625 
Q 44.1875 33.984375 37.640625 27.21875 
Q 31.109375 20.453125 19.1875 8.296875 
z
" id="DejaVuSans-50"/>
       <path d="M 10.796875 72.90625 
L 49.515625 72.90625 
L 49.515625 64.59375 
L 19.828125 64.59375 
L 19.828125 46.734375 
Q 21.96875 47.46875 24.109375 47.828125 
Q 26.265625 48.1875 28.421875 48.1875 
Q 40.625 48.1875 47.75 41.5 
Q 54.890625 34.8125 54.890625 23.390625 
Q 54.890625 11.625 47.5625 5.09375 
Q 40.234375 -1.421875 26.90625 -1.421875 
Q 22.3125 -1.421875 17.546875 -0.640625 
Q 12.796875 0.140625 7.71875 1.703125 
L 7.71875 11.625 
Q 12.109375 9.234375 16.796875 8.0625 
Q 21.484375 6.890625 26.703125 6.890625 
Q 35.15625 6.890625 40.078125 11.328125 
Q 45.015625 15.765625 45.015625 23.390625 
Q 45.015625 31 40.078125 35.4375 
Q 35.15625 39.890625 26.703125 39.890625 
Q 22.75 39.890625 18.8125 39.015625 
Q 14.890625 38.140625 10.796875 36.28125 
z
" id="DejaVuSans-53"/>
      </defs>
      <g transform="translate(99.408421 260.798437)scale(0.1 -0.1)">
       <use xlink:href="#DejaVuSans-36"/>
       <use x="63.623047" xlink:href="#DejaVuSans-50"/>
       <use x="127.246094" xlink:href="#DejaVuSans-53"/>
       <use x="190.869141" xlink:href="#DejaVuSans-77"/>
      </g>
     </g>
    </g>
    <g id="xtick_3">
     <g id="line2d_3">
      <g>
       <use style="stroke:#000000;stroke-width:0.8;" x="161.75974" xlink:href="#m3017a71ed4" y="246.2"/>
      </g>
     </g>
     <g id="text_3">
      <!-- $50M -->
      <g transform="translate(147.901928 260.798437)scale(0.1 -0.1)">
       <use xlink:href="#DejaVuSans-36"/>
       <use x="63.623047" xlink:href="#DejaVuSans-53"/>
       <use x="127.246094" xlink:href="#DejaVuSans-48"/>
       <use x="190.869141" xlink:href="#DejaVuSans-77"/>
      </g>
     </g>
    </g>
    <g id="xtick_4">
     <g id="line2d_4">
      <g>
       <use style="stroke:#000000;stroke-width:0.8;" x="210.253247" xlink:href="#m3017a71ed4" y="246.2"/>
      </g>
     </g>
     <g id="text_4">
      <!-- $75M -->
      <defs>
       <path d="M 8.203125 72.90625 
L 55.078125 72.90625 
L 55.078125 68.703125 
L 28.609375 0 
L 18.3125 0 
L 43.21875 64.59375 
L 8.203125 64.59375 
z
" id="DejaVuSans-55"/>
      </defs>
      <g transform="translate(196.395434 260.798437)scale(0.1 -0.1)">
       <use xlink:href="#DejaVuSans-36"/>
       <use x="63.623047" xlink:href="#DejaVuSans-55"/>
       <use x="127.246094" xlink:href="#DejaVuSans-53"/>
       <use x="190.869141" xlink:href="#DejaVuSans-77"/>
      </g>
     </g>
    </g>
    <g id="xtick_5">
     <g id="line2d_5">
      <g>
       <use style="stroke:#000000;stroke-width:0.8;" x="258.746753" xlink:href="#m3017a71ed4" y="246.2"/>
      </g>
     </g>
     <g id="text_5">
      <!-- $100M -->
      <defs>
       <path d="M 12.40625 8.296875 
L 28.515625 8.296875 
L 28.515625 63.921875 
L 10.984375 60.40625 
L 10.984375 69.390625 
L 28.421875 72.90625 
L 38.28125 72.90625 
L 38.28125 8.296875 
L 54.390625 8.296875 
L 54.390625 0 
L 12.40625 0 
z
" id="DejaVuSans-49"/>
      </defs>
      <g transform="translate(241.707691 260.798437)scale(0.1 -0.1)">
       <use xlink:href="#DejaVuSans-36"/>
       <use x="63.623047" xlink:href="#DejaVuSans-49"/>
       <use x="127.246094" xlink:href="#DejaVuSans-48"/>
       <use x="190.869141" xlink:href="#DejaVuSans-48"/>
       <use x="254.492188" xlink:href="#DejaVuSans-77"/>
      </g>
     </g>
    </g>
    <g id="xtick_6">
     <g id="line2d_6">
      <g>
       <use style="stroke:#000000;stroke-width:0.8;" x="307.24026" xlink:href="#m3017a71ed4" y="246.2"/>
      </g>
     </g>
     <g id="text_6">
      <!-- $125M -->
      <g transform="translate(290.201197 260.798437)scale(0.1 -0.1)">
       <use xlink:href="#DejaVuSans-36"/>
       <use x="63.623047" xlink:href="#DejaVuSans-49"/>
       <use x="127.246094" xlink:href="#DejaVuSans-50"/>
       <use x="190.869141" xlink:href="#DejaVuSans-53"/>
       <use x="254.492188" xlink:href="#DejaVuSans-77"/>
      </g>
     </g>
    </g>
    <g id="xtick_7">
     <g id="line2d_7">
      <g>
       <use style="stroke:#000000;stroke-width:0.8;" x="355.733766" xlink:href="#m3017a71ed4" y="246.2"/>
      </g>
     </g>
     <g id="text_7">
      <!-- $150M -->
      <g transform="translate(338.694704 260.798437)scale(0.1 -0.1)">
       <use xlink:href="#DejaVuSans-36"/>
       <use x="63.623047" xlink:href="#DejaVuSans-49"/>
       <use x="127.246094" xlink:href="#DejaVuSans-53"/>
       <use x="190.869141" xlink:href="#DejaVuSans-48"/>
       <use x="254.492188" xlink:href="#DejaVuSans-77"/>
      </g>
     </g>
    </g>
    <g id="xtick_8">
     <g id="line2d_8">
      <g>
       <use style="stroke:#000000;stroke-width:0.8;" x="404.227273" xlink:href="#m3017a71ed4" y="246.2"/>
      </g>
     </g>
     <g id="text_8">
      <!-- $175M -->
      <g transform="translate(387.18821 260.798437)scale(0.1 -0.1)">
       <use xlink:href="#DejaVuSans-36"/>
       <use x="63.623047" xlink:href="#DejaVuSans-49"/>
       <use x="127.246094" xlink:href="#DejaVuSans-55"/>
       <use x="190.869141" xlink:href="#DejaVuSans-53"/>
       <use x="254.492188" xlink:href="#DejaVuSans-77"/>
      </g>
     </g>
    </g>
    <g id="text_9">
     <!-- Predicted Revenue -->
     <defs>
      <path d="M 19.671875 64.796875 
L 19.671875 37.40625 
L 32.078125 37.40625 
Q 38.96875 37.40625 42.71875 40.96875 
Q 46.484375 44.53125 46.484375 51.125 
Q 46.484375 57.671875 42.71875 61.234375 
Q 38.96875 64.796875 32.078125 64.796875 
z
M 9.8125 72.90625 
L 32.078125 72.90625 
Q 44.34375 72.90625 50.609375 67.359375 
Q 56.890625 61.8125 56.890625 51.125 
Q 56.890625 40.328125 50.609375 34.8125 
Q 44.34375 29.296875 32.078125 29.296875 
L 19.671875 29.296875 
L 19.671875 0 
L 9.8125 0 
z
" id="DejaVuSans-80"/>
      <path d="M 41.109375 46.296875 
Q 39.59375 47.171875 37.8125 47.578125 
Q 36.03125 48 33.890625 48 
Q 26.265625 48 22.1875 43.046875 
Q 18.109375 38.09375 18.109375 28.8125 
L 18.109375 0 
L 9.078125 0 
L 9.078125 54.6875 
L 18.109375 54.6875 
L 18.109375 46.1875 
Q 20.953125 51.171875 25.484375 53.578125 
Q 30.03125 56 36.53125 56 
Q 37.453125 56 38.578125 55.875 
Q 39.703125 55.765625 41.0625 55.515625 
z
" id="DejaVuSans-114"/>
      <path d="M 56.203125 29.59375 
L 56.203125 25.203125 
L 14.890625 25.203125 
Q 15.484375 15.921875 20.484375 11.0625 
Q 25.484375 6.203125 34.421875 6.203125 
Q 39.59375 6.203125 44.453125 7.46875 
Q 49.3125 8.734375 54.109375 11.28125 
L 54.109375 2.78125 
Q 49.265625 0.734375 44.1875 -0.34375 
Q 39.109375 -1.421875 33.890625 -1.421875 
Q 20.796875 -1.421875 13.15625 6.1875 
Q 5.515625 13.8125 5.515625 26.8125 
Q 5.515625 40.234375 12.765625 48.109375 
Q 20.015625 56 32.328125 56 
Q 43.359375 56 49.78125 48.890625 
Q 56.203125 41.796875 56.203125 29.59375 
z
M 47.21875 32.234375 
Q 47.125 39.59375 43.09375 43.984375 
Q 39.0625 48.390625 32.421875 48.390625 
Q 24.90625 48.390625 20.390625 44.140625 
Q 15.875 39.890625 15.1875 32.171875 
z
" id="DejaVuSans-101"/>
      <path d="M 45.40625 46.390625 
L 45.40625 75.984375 
L 54.390625 75.984375 
L 54.390625 0 
L 45.40625 0 
L 45.40625 8.203125 
Q 42.578125 3.328125 38.25 0.953125 
Q 33.9375 -1.421875 27.875 -1.421875 
Q 17.96875 -1.421875 11.734375 6.484375 
Q 5.515625 14.40625 5.515625 27.296875 
Q 5.515625 40.1875 11.734375 48.09375 
Q 17.96875 56 27.875 56 
Q 33.9375 56 38.25 53.625 
Q 42.578125 51.265625 45.40625 46.390625 
z
M 14.796875 27.296875 
Q 14.796875 17.390625 18.875 11.75 
Q 22.953125 6.109375 30.078125 6.109375 
Q 37.203125 6.109375 41.296875 11.75 
Q 45.40625 17.390625 45.40625 27.296875 
Q 45.40625 37.203125 41.296875 42.84375 
Q 37.203125 48.484375 30.078125 48.484375 
Q 22.953125 48.484375 18.875 42.84375 
Q 14.796875 37.203125 14.796875 27.296875 
z
" id="DejaVuSans-100"/>
      <path d="M 9.421875 54.6875 
L 18.40625 54.6875 
L 18.40625 0 
L 9.421875 0 
z
M 9.421875 75.984375 
L 18.40625 75.984375 
L 18.40625 64.59375 
L 9.421875 64.59375 
z
" id="DejaVuSans-105"/>
      <path d="M 48.78125 52.59375 
L 48.78125 44.1875 
Q 44.96875 46.296875 41.140625 47.34375 
Q 37.3125 48.390625 33.40625 48.390625 
Q 24.65625 48.390625 19.8125 42.84375 
Q 14.984375 37.3125 14.984375 27.296875 
Q 14.984375 17.28125 19.8125 11.734375 
Q 24.65625 6.203125 33.40625 6.203125 
Q 37.3125 6.203125 41.140625 7.25 
Q 44.96875 8.296875 48.78125 10.40625 
L 48.78125 2.09375 
Q 45.015625 0.34375 40.984375 -0.53125 
Q 36.96875 -1.421875 32.421875 -1.421875 
Q 20.0625 -1.421875 12.78125 6.34375 
Q 5.515625 14.109375 5.515625 27.296875 
Q 5.515625 40.671875 12.859375 48.328125 
Q 20.21875 56 33.015625 56 
Q 37.15625 56 41.109375 55.140625 
Q 45.0625 54.296875 48.78125 52.59375 
z
" id="DejaVuSans-99"/>
      <path d="M 18.3125 70.21875 
L 18.3125 54.6875 
L 36.8125 54.6875 
L 36.8125 47.703125 
L 18.3125 47.703125 
L 18.3125 18.015625 
Q 18.3125 11.328125 20.140625 9.421875 
Q 21.96875 7.515625 27.59375 7.515625 
L 36.8125 7.515625 
L 36.8125 0 
L 27.59375 0 
Q 17.1875 0 13.234375 3.875 
Q 9.28125 7.765625 9.28125 18.015625 
L 9.28125 47.703125 
L 2.6875 47.703125 
L 2.6875 54.6875 
L 9.28125 54.6875 
L 9.28125 70.21875 
z
" id="DejaVuSans-116"/>
      <path id="DejaVuSans-32"/>
      <path d="M 44.390625 34.1875 
Q 47.5625 33.109375 50.5625 29.59375 
Q 53.5625 26.078125 56.59375 19.921875 
L 66.609375 0 
L 56 0 
L 46.6875 18.703125 
Q 43.0625 26.03125 39.671875 28.421875 
Q 36.28125 30.8125 30.421875 30.8125 
L 19.671875 30.8125 
L 19.671875 0 
L 9.8125 0 
L 9.8125 72.90625 
L 32.078125 72.90625 
Q 44.578125 72.90625 50.734375 67.671875 
Q 56.890625 62.453125 56.890625 51.90625 
Q 56.890625 45.015625 53.6875 40.46875 
Q 50.484375 35.9375 44.390625 34.1875 
z
M 19.671875 64.796875 
L 19.671875 38.921875 
L 32.078125 38.921875 
Q 39.203125 38.921875 42.84375 42.21875 
Q 46.484375 45.515625 46.484375 51.90625 
Q 46.484375 58.296875 42.84375 61.546875 
Q 39.203125 64.796875 32.078125 64.796875 
z
" id="DejaVuSans-82"/>
      <path d="M 2.984375 54.6875 
L 12.5 54.6875 
L 29.59375 8.796875 
L 46.6875 54.6875 
L 56.203125 54.6875 
L 35.6875 0 
L 23.484375 0 
z
" id="DejaVuSans-118"/>
      <path d="M 54.890625 33.015625 
L 54.890625 0 
L 45.90625 0 
L 45.90625 32.71875 
Q 45.90625 40.484375 42.875 44.328125 
Q 39.84375 48.1875 33.796875 48.1875 
Q 26.515625 48.1875 22.3125 43.546875 
Q 18.109375 38.921875 18.109375 30.90625 
L 18.109375 0 
L 9.078125 0 
L 9.078125 54.6875 
L 18.109375 54.6875 
L 18.109375 46.1875 
Q 21.34375 51.125 25.703125 53.5625 
Q 30.078125 56 35.796875 56 
Q 45.21875 56 50.046875 50.171875 
Q 54.890625 44.34375 54.890625 33.015625 
z
" id="DejaVuSans-110"/>
      <path d="M 8.5 21.578125 
L 8.5 54.6875 
L 17.484375 54.6875 
L 17.484375 21.921875 
Q 17.484375 14.15625 20.5 10.265625 
Q 23.53125 6.390625 29.59375 6.390625 
Q 36.859375 6.390625 41.078125 11.03125 
Q 45.3125 15.671875 45.3125 23.6875 
L 45.3125 54.6875 
L 54.296875 54.6875 
L 54.296875 0 
L 45.3125 0 
L 45.3125 8.40625 
Q 42.046875 3.421875 37.71875 1 
Q 33.40625 -1.421875 27.6875 -1.421875 
Q 18.265625 -1.421875 13.375 4.4375 
Q 8.5 10.296875 8.5 21.578125 
z
M 31.109375 56 
z
" id="DejaVuSans-117"/>
     </defs>
     <g transform="translate(187.245313 274.476562)scale(0.1 -0.1)">
      <use xlink:href="#DejaVuSans-80"/>
      <use x="60.287109" xlink:href="#DejaVuSans-114"/>
      <use x="101.369141" xlink:href="#DejaVuSans-101"/>
      <use x="162.892578" xlink:href="#DejaVuSans-100"/>
      <use x="226.369141" xlink:href="#DejaVuSans-105"/>
      <use x="254.152344" xlink:href="#DejaVuSans-99"/>
      <use x="309.132812" xlink:href="#DejaVuSans-116"/>
      <use x="348.341797" xlink:href="#DejaVuSans-101"/>
      <use x="409.865234" xlink:href="#DejaVuSans-100"/>
      <use x="473.341797" xlink:href="#DejaVuSans-32"/>
      <use x="505.128906" xlink:href="#DejaVuSans-82"/>
      <use x="574.548828" xlink:href="#DejaVuSans-101"/>
      <use x="636.072266" xlink:href="#DejaVuSans-118"/>
      <use x="695.251953" xlink:href="#DejaVuSans-101"/>
      <use x="756.775391" xlink:href="#DejaVuSans-110"/>
      <use x="820.154297" xlink:href="#DejaVuSans-117"/>
      <use x="883.533203" xlink:href="#DejaVuSans-101"/>
     </g>
    </g>
   </g>
   <g id="matplotlib.axis_2">
    <g id="ytick_1">
     <g id="line2d_9">
      <defs>
       <path d="M 0 0 
L -3.5 0 
" id="m4023c3b640" style="stroke:#000000;stroke-width:0.8;"/>
      </defs>
      <g>
       <use style="stroke:#000000;stroke-width:0.8;" x="47.8" xlink:href="#m4023c3b640" y="236"/>
      </g>
     </g>
     <g id="text_10">
      <!-- $0M -->
      <g transform="translate(19.446875 239.799219)scale(0.1 -0.1)">
       <use xlink:href="#DejaVuSans-36"/>
       <use x="63.623047" xlink:href="#DejaVuSans-48"/>
       <use x="127.246094" xlink:href="#DejaVuSans-77"/>
      </g>
     </g>
    </g>
    <g id="ytick_2">
     <g id="line2d_10">
      <g>
       <use style="stroke:#000000;stroke-width:0.8;" x="47.8" xlink:href="#m4023c3b640" y="184.066101"/>
      </g>
     </g>
     <g id="text_11">
      <!-- $100M -->
      <g transform="translate(6.721875 187.86532)scale(0.1 -0.1)">
       <use xlink:href="#DejaVuSans-36"/>
       <use x="63.623047" xlink:href="#DejaVuSans-49"/>
       <use x="127.246094" xlink:href="#DejaVuSans-48"/>
       <use x="190.869141" xlink:href="#DejaVuSans-48"/>
       <use x="254.492188" xlink:href="#DejaVuSans-77"/>
      </g>
     </g>
    </g>
    <g id="ytick_3">
     <g id="line2d_11">
      <g>
       <use style="stroke:#000000;stroke-width:0.8;" x="47.8" xlink:href="#m4023c3b640" y="132.132202"/>
      </g>
     </g>
     <g id="text_12">
      <!-- $200M -->
      <g transform="translate(6.721875 135.93142)scale(0.1 -0.1)">
       <use xlink:href="#DejaVuSans-36"/>
       <use x="63.623047" xlink:href="#DejaVuSans-50"/>
       <use x="127.246094" xlink:href="#DejaVuSans-48"/>
       <use x="190.869141" xlink:href="#DejaVuSans-48"/>
       <use x="254.492188" xlink:href="#DejaVuSans-77"/>
      </g>
     </g>
    </g>
    <g id="ytick_4">
     <g id="line2d_12">
      <g>
       <use style="stroke:#000000;stroke-width:0.8;" x="47.8" xlink:href="#m4023c3b640" y="80.198303"/>
      </g>
     </g>
     <g id="text_13">
      <!-- $300M -->
      <defs>
       <path d="M 40.578125 39.3125 
Q 47.65625 37.796875 51.625 33 
Q 55.609375 28.21875 55.609375 21.1875 
Q 55.609375 10.40625 48.1875 4.484375 
Q 40.765625 -1.421875 27.09375 -1.421875 
Q 22.515625 -1.421875 17.65625 -0.515625 
Q 12.796875 0.390625 7.625 2.203125 
L 7.625 11.71875 
Q 11.71875 9.328125 16.59375 8.109375 
Q 21.484375 6.890625 26.8125 6.890625 
Q 36.078125 6.890625 40.9375 10.546875 
Q 45.796875 14.203125 45.796875 21.1875 
Q 45.796875 27.640625 41.28125 31.265625 
Q 36.765625 34.90625 28.71875 34.90625 
L 20.21875 34.90625 
L 20.21875 43.015625 
L 29.109375 43.015625 
Q 36.375 43.015625 40.234375 45.921875 
Q 44.09375 48.828125 44.09375 54.296875 
Q 44.09375 59.90625 40.109375 62.90625 
Q 36.140625 65.921875 28.71875 65.921875 
Q 24.65625 65.921875 20.015625 65.03125 
Q 15.375 64.15625 9.8125 62.3125 
L 9.8125 71.09375 
Q 15.4375 72.65625 20.34375 73.4375 
Q 25.25 74.21875 29.59375 74.21875 
Q 40.828125 74.21875 47.359375 69.109375 
Q 53.90625 64.015625 53.90625 55.328125 
Q 53.90625 49.265625 50.4375 45.09375 
Q 46.96875 40.921875 40.578125 39.3125 
z
" id="DejaVuSans-51"/>
      </defs>
      <g transform="translate(6.721875 83.997521)scale(0.1 -0.1)">
       <use xlink:href="#DejaVuSans-36"/>
       <use x="63.623047" xlink:href="#DejaVuSans-51"/>
       <use x="127.246094" xlink:href="#DejaVuSans-48"/>
       <use x="190.869141" xlink:href="#DejaVuSans-48"/>
       <use x="254.492188" xlink:href="#DejaVuSans-77"/>
      </g>
     </g>
    </g>
    <g id="ytick_5">
     <g id="line2d_13">
      <g>
       <use style="stroke:#000000;stroke-width:0.8;" x="47.8" xlink:href="#m4023c3b640" y="28.264403"/>
      </g>
     </g>
     <g id="text_14">
      <!-- $400M -->
      <defs>
       <path d="M 37.796875 64.3125 
L 12.890625 25.390625 
L 37.796875 25.390625 
z
M 35.203125 72.90625 
L 47.609375 72.90625 
L 47.609375 25.390625 
L 58.015625 25.390625 
L 58.015625 17.1875 
L 47.609375 17.1875 
L 47.609375 0 
L 37.796875 0 
L 37.796875 17.1875 
L 4.890625 17.1875 
L 4.890625 26.703125 
z
" id="DejaVuSans-52"/>
      </defs>
      <g transform="translate(6.721875 32.063622)scale(0.1 -0.1)">
       <use xlink:href="#DejaVuSans-36"/>
       <use x="63.623047" xlink:href="#DejaVuSans-52"/>
       <use x="127.246094" xlink:href="#DejaVuSans-48"/>
       <use x="190.869141" xlink:href="#DejaVuSans-48"/>
       <use x="254.492188" xlink:href="#DejaVuSans-77"/>
      </g>
     </g>
    </g>
    <g id="text_15">
     <!-- Actual revenue -->
     <defs>
      <path d="M 34.1875 63.1875 
L 20.796875 26.90625 
L 47.609375 26.90625 
z
M 28.609375 72.90625 
L 39.796875 72.90625 
L 67.578125 0 
L 57.328125 0 
L 50.6875 18.703125 
L 17.828125 18.703125 
L 11.1875 0 
L 0.78125 0 
z
" id="DejaVuSans-65"/>
      <path d="M 34.28125 27.484375 
Q 23.390625 27.484375 19.1875 25 
Q 14.984375 22.515625 14.984375 16.5 
Q 14.984375 11.71875 18.140625 8.90625 
Q 21.296875 6.109375 26.703125 6.109375 
Q 34.1875 6.109375 38.703125 11.40625 
Q 43.21875 16.703125 43.21875 25.484375 
L 43.21875 27.484375 
z
M 52.203125 31.203125 
L 52.203125 0 
L 43.21875 0 
L 43.21875 8.296875 
Q 40.140625 3.328125 35.546875 0.953125 
Q 30.953125 -1.421875 24.3125 -1.421875 
Q 15.921875 -1.421875 10.953125 3.296875 
Q 6 8.015625 6 15.921875 
Q 6 25.140625 12.171875 29.828125 
Q 18.359375 34.515625 30.609375 34.515625 
L 43.21875 34.515625 
L 43.21875 35.40625 
Q 43.21875 41.609375 39.140625 45 
Q 35.0625 48.390625 27.6875 48.390625 
Q 23 48.390625 18.546875 47.265625 
Q 14.109375 46.140625 10.015625 43.890625 
L 10.015625 52.203125 
Q 14.9375 54.109375 19.578125 55.046875 
Q 24.21875 56 28.609375 56 
Q 40.484375 56 46.34375 49.84375 
Q 52.203125 43.703125 52.203125 31.203125 
z
" id="DejaVuSans-97"/>
      <path d="M 9.421875 75.984375 
L 18.40625 75.984375 
L 18.40625 0 
L 9.421875 0 
z
" id="DejaVuSans-108"/>
     </defs>
     <g transform="translate(0.642188 171.920312)rotate(-90)scale(0.1 -0.1)">
      <use xlink:href="#DejaVuSans-65"/>
      <use x="68.392578" xlink:href="#DejaVuSans-99"/>
      <use x="123.373047" xlink:href="#DejaVuSans-116"/>
      <use x="162.582031" xlink:href="#DejaVuSans-117"/>
      <use x="225.960938" xlink:href="#DejaVuSans-97"/>
      <use x="287.240234" xlink:href="#DejaVuSans-108"/>
      <use x="315.023438" xlink:href="#DejaVuSans-32"/>
      <use x="346.810547" xlink:href="#DejaVuSans-114"/>
      <use x="387.892578" xlink:href="#DejaVuSans-101"/>
      <use x="449.416016" xlink:href="#DejaVuSans-118"/>
      <use x="508.595703" xlink:href="#DejaVuSans-101"/>
      <use x="570.119141" xlink:href="#DejaVuSans-110"/>
      <use x="633.498047" xlink:href="#DejaVuSans-117"/>
      <use x="696.876953" xlink:href="#DejaVuSans-101"/>
     </g>
    </g>
   </g>
   <g id="line2d_14">
    <path clip-path="url(#pec000e7359)" d="M 64.772727 236 
L 404.227273 145.115677 
" style="fill:none;stroke:#b2b2b2;stroke-dasharray:5.55,2.4;stroke-dashoffset:0;stroke-width:1.5;"/>
   </g>
   <g id="patch_3">
    <path d="M 47.8 246.2 
L 47.8 21.8 
" style="fill:none;stroke:#000000;stroke-linecap:square;stroke-linejoin:miter;stroke-width:0.8;"/>
   </g>
   <g id="patch_4">
    <path d="M 421.2 246.2 
L 421.2 21.8 
" style="fill:none;stroke:#000000;stroke-linecap:square;stroke-linejoin:miter;stroke-width:0.8;"/>
   </g>
   <g id="patch_5">
    <path d="M 47.8 246.2 
L 421.2 246.2 
" style="fill:none;stroke:#000000;stroke-linecap:square;stroke-linejoin:miter;stroke-width:0.8;"/>
   </g>
   <g id="patch_6">
    <path d="M 47.8 21.8 
L 421.2 21.8 
" style="fill:none;stroke:#000000;stroke-linecap:square;stroke-linejoin:miter;stroke-width:0.8;"/>
   </g>
  </g>
  <g id="text_16">
   <!-- Prediction vs. Actual -->
   <defs>
    <path d="M 30.609375 48.390625 
Q 23.390625 48.390625 19.1875 42.75 
Q 14.984375 37.109375 14.984375 27.296875 
Q 14.984375 17.484375 19.15625 11.84375 
Q 23.34375 6.203125 30.609375 6.203125 
Q 37.796875 6.203125 41.984375 11.859375 
Q 46.1875 17.53125 46.1875 27.296875 
Q 46.1875 37.015625 41.984375 42.703125 
Q 37.796875 48.390625 30.609375 48.390625 
z
M 30.609375 56 
Q 42.328125 56 49.015625 48.375 
Q 55.71875 40.765625 55.71875 27.296875 
Q 55.71875 13.875 49.015625 6.21875 
Q 42.328125 -1.421875 30.609375 -1.421875 
Q 18.84375 -1.421875 12.171875 6.21875 
Q 5.515625 13.875 5.515625 27.296875 
Q 5.515625 40.765625 12.171875 48.375 
Q 18.84375 56 30.609375 56 
z
" id="DejaVuSans-111"/>
    <path d="M 44.28125 53.078125 
L 44.28125 44.578125 
Q 40.484375 46.53125 36.375 47.5 
Q 32.28125 48.484375 27.875 48.484375 
Q 21.1875 48.484375 17.84375 46.4375 
Q 14.5 44.390625 14.5 40.28125 
Q 14.5 37.15625 16.890625 35.375 
Q 19.28125 33.59375 26.515625 31.984375 
L 29.59375 31.296875 
Q 39.15625 29.25 43.1875 25.515625 
Q 47.21875 21.78125 47.21875 15.09375 
Q 47.21875 7.46875 41.1875 3.015625 
Q 35.15625 -1.421875 24.609375 -1.421875 
Q 20.21875 -1.421875 15.453125 -0.5625 
Q 10.6875 0.296875 5.421875 2 
L 5.421875 11.28125 
Q 10.40625 8.6875 15.234375 7.390625 
Q 20.0625 6.109375 24.8125 6.109375 
Q 31.15625 6.109375 34.5625 8.28125 
Q 37.984375 10.453125 37.984375 14.40625 
Q 37.984375 18.0625 35.515625 20.015625 
Q 33.0625 21.96875 24.703125 23.78125 
L 21.578125 24.515625 
Q 13.234375 26.265625 9.515625 29.90625 
Q 5.8125 33.546875 5.8125 39.890625 
Q 5.8125 47.609375 11.28125 51.796875 
Q 16.75 56 26.8125 56 
Q 31.78125 56 36.171875 55.265625 
Q 40.578125 54.546875 44.28125 53.078125 
z
" id="DejaVuSans-115"/>
    <path d="M 10.6875 12.40625 
L 21 12.40625 
L 21 0 
L 10.6875 0 
z
" id="DejaVuSans-46"/>
   </defs>
   <g transform="translate(154.660313 14.878125)scale(0.12 -0.12)">
    <use xlink:href="#DejaVuSans-80"/>
    <use x="60.287109" xlink:href="#DejaVuSans-114"/>
    <use x="101.369141" xlink:href="#DejaVuSans-101"/>
    <use x="162.892578" xlink:href="#DejaVuSans-100"/>
    <use x="226.369141" xlink:href="#DejaVuSans-105"/>
    <use x="254.152344" xlink:href="#DejaVuSans-99"/>
    <use x="309.132812" xlink:href="#DejaVuSans-116"/>
    <use x="348.341797" xlink:href="#DejaVuSans-105"/>
    <use x="376.125" xlink:href="#DejaVuSans-111"/>
    <use x="437.306641" xlink:href="#DejaVuSans-110"/>
    <use x="500.685547" xlink:href="#DejaVuSans-32"/>
    <use x="532.472656" xlink:href="#DejaVuSans-118"/>
    <use x="591.652344" xlink:href="#DejaVuSans-115"/>
    <use x="643.751953" xlink:href="#DejaVuSans-46"/>
    <use x="675.539062" xlink:href="#DejaVuSans-32"/>
    <use x="707.326172" xlink:href="#DejaVuSans-65"/>
    <use x="775.71875" xlink:href="#DejaVuSans-99"/>
    <use x="830.699219" xlink:href="#DejaVuSans-116"/>
    <use x="869.908203" xlink:href="#DejaVuSans-117"/>
    <use x="933.287109" xlink:href="#DejaVuSans-97"/>
    <use x="994.566406" xlink:href="#DejaVuSans-108"/>
   </g>
  </g>
 </g>
 <defs>
  <clipPath id="pec000e7359">
   <rect height="224.4" width="373.4" x="47.8" y="21.8"/>
  </clipPath>
 </defs>
</svg>
